# xmcd
#
# Track frame offsets:
#	150
#	18400
#	38275
#	53913
#	73913
#	92738
#	109388
#	127513
#	143988
#	160825
#
# Disc length: 2393 seconds
#
# Revision: 2
# Processed by: cddbd v1.5.2PL0 Copyright (c) Steve Scherf et al.
# Submitted via: EasyCDDAExtractor 12.0.6 .1
#
DISCID=7e09570a
DTITLE=蔣志光 - Passage
DYEAR=1993
DGENRE=Pop
TTITLE0=反璞歸真 
TTITLE1=晴天雨天
TTITLE2=是你
TTITLE3=誰是你知音 
TTITLE4=愛的語言
TTITLE5=最愛是你
TTITLE6=夢裡想著你 
TTITLE7=同林鳥 
TTITLE8=TOGETHER
TTITLE9=你可以嗎 
EXTD=YEAR: 1993
EXTT0=
EXTT1=
EXTT2=
EXTT3=
EXTT4=
EXTT5=
EXTT6=
EXTT7=
EXTT8=
EXTT9=
PLAYORDER=
